HIERARCHY
ROOT Hips
{
  OFFSET 320.38 92.8844 -18.9421
  CHANNELS 6 Xposition Yposition Zposition Zrotation Xrotation Yrotation
  JOINT ToSpine
  {
    OFFSET -2.69724 7.43032 -0.144315
    CHANNELS 3 Zrotation Xrotation Yrotation
    JOINT Spine
    {
      OFFSET -0.0310711 10.7595 1.96963
      CHANNELS 3 Zrotation Xrotation Yrotation
      JOINT Spine1
      {
        OFFSET 13.1342 3.43533 0.764692
        CHANNELS 3 Zrotation Xrotation Yrotation
        JOINT Neck
        {
          OFFSET 29.8703 7.82586 -0.130764
          CHANNELS 3 Zrotation Xrotation Yrotation
          JOINT Head
          {
            OFFSET 9.52751 0.295786 -0.907742
            CHANNELS 3 Zrotation Xrotation Yrotation
            End Site
            {
              OFFSET 16.4037 0.713936 2.7358
            }
          }
        }
        JOINT LeftShoulder
        {
          OFFSET 27.5574 4.95586 2.47156
          CHANNELS 3 Zrotation Xrotation Yrotation
          JOINT LeftArm
          {
            OFFSET 1.20734 -0.998971 20.1238
            CHANNELS 3 Zrotation Xrotation Yrotation
            JOINT LeftForeArm
            {
              OFFSET 26.8049 -0.0536703 -0.155908
              CHANNELS 3 Zrotation Xrotation Yrotation
              JOINT LeftHand
              {
                OFFSET 26.6817 0 0.320147
                CHANNELS 3 Zrotation Xrotation Yrotation
                End Site
                {
                  OFFSET 18.6119 0 0.382219
                }
              }
            }
          }
        }
        JOINT RightShoulder
        {
          OFFSET 27.5927 4.71444 -2.65209
          CHANNELS 3 Zrotation Xrotation Yrotation
          JOINT RightArm
          {
            OFFSET 2.83739 -1.17114 -18.7564
            CHANNELS 3 Zrotation Xrotation Yrotation
            JOINT RightForeArm
            {
              OFFSET 28.839 -0.0548439 1.22491
              CHANNELS 3 Zrotation Xrotation Yrotation
              JOINT RightHand
              {
                OFFSET 26.5114 0 -0.101894
                CHANNELS 3 Zrotation Xrotation Yrotation
                End Site
                {
                  OFFSET 18.2168 0 0
                }
              }
            }
          }
        }
      }
    }
  }
  JOINT LeftUpLeg
  {
    OFFSET -4.76168 -1.9167 -10.2353
    CHANNELS 3 Zrotation Xrotation Yrotation
    JOINT LeftLeg
    {
      OFFSET 2.55951 -42.0585 -8.02213
      CHANNELS 3 Zrotation Xrotation Yrotation
      JOINT LeftFoot
      {
        OFFSET 3.16357 -42.5282 -3.95426
        CHANNELS 3 Zrotation Xrotation Yrotation
        JOINT LeftToeBase
        {
          OFFSET 0.346054 -6.02161 12.8035
          CHANNELS 3 Zrotation Xrotation Yrotation
          End Site
          {
            OFFSET 0.134235 -1.35082 5.13018
          }
        }
      }
    }
  }
  JOINT RightUpLeg
  {
    OFFSET -4.94151 -1.41743 10.6446
    CHANNELS 3 Zrotation Xrotation Yrotation
    JOINT RightLeg
    {
      OFFSET -2.56294 -42.0364 -7.94377
      CHANNELS 3 Zrotation Xrotation Yrotation
      JOINT RightFoot
      {
        OFFSET -3.0952 -42.555 -4.02241
        CHANNELS 3 Zrotation Xrotation Yrotation
        JOINT RightToeBase
        {
          OFFSET -0.0828122 -6.13587 12.8035
          CHANNELS 3 Zrotation Xrotation Yrotation
          End Site
          {
            OFFSET -0.131328 -1.35082 5.13018
          }
        }
      }
    }
  }
}
MOTION
Frames:	18
Frame Time:	0.0333333
70.8852 95.6888 -28.9465 49.7881 -40.2239 -21.3825 -70.1915 0 88.8779 124.53 71.9388 -33.325 -1.86467 24.2185 2.28832 -153.714 9.32689 175.403 -133.856 46.0393 -178.531 0.0981694 -14.9541 -30.3063 -12.6224 66.5676 -102.013 15.3868 7.58142 -63.8693 0.420957 0.000575435 0.35866 -1.40118 5.62156 39.7417 -82.977 -34.8175 74.4627 12.4244 0.796856 93.3647 0.58676 0.000330997 0.0646654 2.09473 18.8208 104.233 -10.7978 68.8962 -7.69327 -7.59323 13.9597 2.88278 1.15755 -3.9037 4.00612 -54.2519 -17.9139 76.6471 -0.400773 26.4003 16.3208 7.8228 20.2102 -3.77175 2.04614 -12.4429 -9.92892 
77.0081 97.4895 -26.4123 50.7845 -39.3373 -17.8693 -70.1915 0 88.8779 121.276 72.7765 -29.389 -2.00637 24.4041 2.53183 -152.246 9.81041 175.361 -135.831 47.0912 -176.956 0.462918 -13.34 -28.8377 -17.2589 70.282 -97.8375 13.4819 6.18701 -65.2912 0.420957 0.000575435 0.35866 -1.37379 5.67596 39.0203 -80.658 -36.7131 72.4507 16.8065 1.96032 96.2013 0.58676 0.000330997 0.0646654 -3.08394 19.3276 106.661 -9.17151 65.2196 -11.9863 -8.18824 13.9123 3.0256 0.547239 -2.63 3.81378 -58.5115 -14.7157 76.8837 -0.886582 26.0244 17.0642 1.69961 21.4634 -2.01791 2.0318 -1.95038 -12.4253 
82.9095 97.9049 -24.146 51.2779 -36.4336 -15.4585 -70.1915 0 88.8779 113.423 73.6125 -20.9535 -1.27755 24.602 1.12581 -152.443 11.0061 175.115 -139.463 49.0761 -174.705 0.685602 -12.2018 -28.1764 -27.2528 71.2808 -89.1149 12.3385 5.62719 -65.3578 0.420957 0.000575435 0.35866 -1.28047 5.35734 38.8347 -79.6017 -38.6486 69.3789 19.7193 2.74917 97.36 0.58676 0.000330997 0.0646654 -7.25079 17.0998 109.095 -8.36739 62.8583 -14.4198 -7.23523 13.378 2.71222 -0.514482 -0.045241 2.66457 -59.7447 -11.6731 82.6707 -0.231887 31.3808 6.3807 -2.74771 16.2138 -0.350555 1.17307 -3.08718 -5.96308 
88.7966 97.2427 -22.0549 53.7288 -33.6622 -11.1764 -70.1915 0 88.8779 114.75 72.7002 -22.4157 -2.24637 23.8251 1.51498 -151.802 11.5187 174.204 -140.213 49.8909 -173.682 0.955273 -10.6737 -28.6755 -46.4862 70.0814 -74.1301 7.36704 3.57352 -63.8927 0.420957 0.000575435 0.35866 -1.31194 5.477 38.8431 -78.258 -40.4343 67.3043 23.5222 2.22732 94.8586 0.58676 0.000330997 0.0646654 -13.2062 14.8395 110.427 -7.57941 61.4442 -13.0513 -4.7952 14.7812 2.27785 4.18423 -8.59015 -1.90098 -61.6173 -8.38966 86.0276 1.96291 39.4891 2.30252 -2.0707 13.3705 -0.36684 2.50568 -4.56561 -16.0029 
94.8286 96.1822 -20.1156 54.4094 -31.0465 -9.89842 -70.1915 0 88.8779 107.214 73.1868 -15.4741 -0.320399 24.0074 -0.124119 -151.598 12.6284 174.71 -142.87 51.5864 -170.993 0.968789 -10.5537 -31.0982 -66.8389 65.2379 -59.0795 7.05352 3.84379 -61.2474 0.420957 0.000575435 0.35866 -1.42537 5.75681 39.5383 -77.4556 -41.2353 64.9387 20.1255 0.485972 91.1012 0.58676 0.000330997 0.0646654 -19.0809 11.7814 112.085 -7.55068 60.8711 -14.2653 -0.422045 6.026 0.453647 4.01675 -8.3799 -1.22235 -60.8016 -7.123 86.9914 2.16573 48.0659 -1.84143 -3.67844 11.4481 0.11062 1.00407 -2.06458 -5.28405 
100.76 94.5293 -18.533 54.1002 -30.0969 -10.0719 -70.1915 0 88.8779 103.498 73.9776 -12.8605 -0.0971478 25.0726 -1.62107 -150.962 13.4187 174.442 -146.166 53.0749 -167.015 0.991414 -10.4209 -33.1098 -83.1122 57.4732 -49.0558 4.59712 2.42315 -62.1469 0.420957 0.000575435 0.35866 -1.49239 5.67413 41.0625 -75.1467 -42.0123 64.4433 17.6051 -1.68083 84.5367 0.58676 0.000330997 0.0646654 -23.7768 8.96269 112.693 -7.88896 61.3266 -15.3835 -0.712149 -5.3973 -0.455719 2.96959 -7.88925 5.907 -56.6886 -4.49143 91.9466 4.08984 59.5926 -2.22722 -3.96143 11.039 0.192183 2.12852 -4.50636 -12.9244 
106.242 92.1168 -17.0364 54.336 -26.3666 -8.40173 -70.1915 0 88.8779 99.4494 72.8681 -10.1241 0.868318 23.9948 -2.66365 -152.548 13.4927 172.81 -147.714 53.3923 -165.81 1.11658 -9.87692 -34.5464 -90.7487 50.0888 -49.4965 1.41273 0.679298 -65.3098 0.420957 0.000575435 0.35866 -1.53502 5.48245 42.751 -70.3128 -42.0986 67.5841 15.282 -3.98862 75.6029 0.58676 0.000330997 0.0646654 -25.3387 4.24562 109.245 -8.81175 64.0003 -13.4517 1.0769 -10.8703 -0.987294 4.75191 -11.6188 8.92868 -50.287 -1.87045 92.5822 8.53076 73.1554 -10.2203 -5.95406 9.41892 0.678922 1.994 -5.80893 -11.6068 
110.79 89.9137 -15.4264 55.1122 -20.9248 -7.01798 -70.1915 0 88.8779 99.5155 71.305 -14.4982 0.783251 22.1668 -1.69671 -153.778 14.0608 170.956 -149.075 54.1762 -164.415 0.680046 -11.679 -35.2807 -96.0433 42.5716 -53.8332 6.36717 2.32971 -69.618 0.420957 0.000575435 0.35866 -1.59513 5.49286 43.7424 -65.1279 -43.5096 71.6944 13.082 -5.82723 66.3629 0.58676 0.000330997 0.0646654 -27.0367 -1.68114 104.45 -10.0093 66.3903 -12.616 1.48583 -15.6955 -1.32967 4.87019 -12.0055 10.3475 -40.6789 0.497962 92.3275 54.5125 86.3437 -59.9142 -6.09225 6.61348 0.775721 1.96533 -3.32636 -11.7827 
116.277 88.8102 -14.2944 55.0665 -17.3631 -5.65861 -70.1915 0 88.8779 101.092 70.1549 -17.1957 0.669133 21.0093 -1.58563 -154.645 14.9141 171.234 -150.361 55.2194 -162.287 0.296193 -13.2551 -35.214 -98.0724 37.884 -60.7242 9.60019 2.1955 -76.6936 0.420957 0.000575435 0.35866 -1.60442 5.36808 44.5796 -59.2349 -44.2976 73.311 12.4951 -7.30582 60.1562 0.58676 0.000330997 0.0646654 -31.0341 -5.55366 100.882 -10.2195 65.5615 -17.4093 3.74219 -17.9705 -1.41759 5.63065 -14.1138 19.9413 -28.9094 3.76542 92.586 155.088 81.5893 -160.961 -7.38508 6.81276 1.01364 2.23363 -8.87482 -13.6645 
122.408 88.1672 -13.6081 54.7406 -14.9538 -3.79022 -70.1915 0 88.8779 104.404 68.4359 -19.5728 -0.789266 19.5275 -1.34849 -155.533 14.5611 171.139 -151.618 54.8626 -162.003 0.319164 -13.3867 -33.3804 -100.547 36.3603 -65.1267 13.3616 0.788662 -86.0209 0.420957 0.000575435 0.35866 -1.66403 5.371 45.6109 -55.8867 -44.6309 70.548 14.1761 -8.76951 58.8711 0.58676 0.000330997 0.0646654 -36.4049 -6.62673 99.3985 -8.95501 62.7033 -18.8804 3.50276 -19.2542 -1.49076 6.23901 -14.9076 19.2863 -16.1793 7.37204 92.1826 161.853 76.9673 -165.649 -8.59019 6.18007 1.24175 2.41735 -14.3424 -18.2217 
130.254 89.1221 -12.8165 55.2215 -11.3981 -0.231463 -70.1915 0 88.8779 105.437 65.7152 -19.705 -1.54158 16.1582 0.923418 -155.237 13.0822 171.335 -150.838 53.2626 -163.424 0.589163 -12.469 -30.4895 -103.184 37.6628 -65.8216 16.3307 -1.62501 -94.7966 0.420957 0.000575435 0.35866 -1.87277 6.01323 45.6283 -54.3817 -45.7901 65.6538 17.9791 -10.6994 60.1679 0.58676 0.000330997 0.0646654 -44.8518 -6.61182 95.5595 -6.47286 56.0813 -18.0035 2.88337 -16.3146 -1.35043 6.44186 -14.5265 9.18741 -7.76953 8.50278 89.1812 155.681 80.4128 -158.049 -9.50063 4.65752 1.40056 2.34808 -15.711 -17.4888 
138.853 90.7837 -12.571 55.8411 -9.71116 2.28931 -70.1915 0 88.8779 107.309 64.1615 -19.6133 -1.69295 14.2102 2.70976 -155.918 12.5624 172.053 -147.943 52.1175 -168.141 0.625303 -12.4308 -29.1156 -104.269 38.6575 -63.9414 17.6632 -4.39219 -102.743 0.420957 0.000575435 0.35866 -1.92629 6.24786 45.2862 -55.7076 -46.3034 59.4186 16.3017 -9.00972 61.7825 0.58676 0.000330997 0.0646654 -53.9248 -5.81074 92.4333 -4.56956 47.2052 -17.6075 -0.0962799 -5.554 -0.518698 8.68827 -18.2919 -2.92171 -3.332 10.121 87.8081 66.2247 86.0923 -65.4477 -7.63532 6.36377 1.0656 2.05057 -22.0508 -20.254 
147.99 92.45 -12.2767 57.0438 -8.5811 3.86224 -70.1915 0 88.8779 108.785 63.5093 -19.9142 -1.46903 13.4071 4.33024 -155.156 12.4679 174.483 -148.994 52.2774 -165.975 0.575373 -12.7837 -28.4404 -101.617 40.274 -62.5242 18.7514 -6.68917 -108.133 0.420957 0.000575435 0.35866 -1.92584 6.36093 44.734 -59.8285 -46.4437 52.5456 15.6828 -7.89992 63.8644 0.58676 0.000330997 0.0646654 -62.7555 -4.30009 91.2489 -3.66781 38.2675 -19.9373 -6.93887 9.02797 2.04718 8.27958 -17.1127 -14.6763 -4.04969 10.4963 86.4009 8.15931 71.9511 -8.42478 -2.33247 4.82099 0.175949 2.28367 -17.255 -15.8861 
157.214 94.1002 -12.255 54.7658 -7.62909 2.2167 -70.1915 0 88.8779 100.59 64.1977 -12.5195 -1.03234 13.0726 5.37743 -157.302 12.5129 172.253 -147.157 51.3552 -172.885 0.702936 -12.2272 -27.0093 -96.5441 42.9287 -63.0295 20.6473 -8.10442 -109.709 0.420957 0.000575435 0.35866 -1.97416 6.62735 44.216 -63.8591 -45.8336 48.8703 16.5357 -7.70354 65.6328 0.58676 0.000330997 0.0646654 -65.4054 -5.23527 92.8776 -2.58588 33.2252 -24.6114 -11.9714 17.015 4.53825 1.18351 0.947115 -8.19077 -4.58868 9.88976 86.8462 3.53243 52.9992 2.55053 -1.6395 4.52281 0.0757275 2.48485 -15.4694 -22.4168 
166.466 94.3452 -12.1714 53.6398 -6.59362 0.649591 -70.1915 0 88.8779 93.1139 64.8648 -5.25738 0.52576 13.633 5.16166 -159.685 13.2997 172.56 -147.829 51.9164 -174.558 0.65539 -12.6116 -26.2452 -89.296 45.5578 -65.4134 17.9817 -6.36073 -108.038 0.420957 0.000575435 0.35866 -1.73736 6.14705 42.8396 -66.8171 -45.8145 49.2226 18.3344 -8.35915 66.2296 0.58676 0.000330997 0.0646654 -65.4776 -6.85958 91.5665 -3.36041 36.0333 -18.4345 -9.85179 13.124 3.31788 -1.45719 4.51321 -2.53418 -7.15851 8.51199 85.102 2.73765 38.7339 10.1887 -2.53754 10.8038 -0.113989 1.34752 -25.055 -28.5164 
174.847 93.7497 -12.4347 54.981 -5.58527 -1.26046 -70.1915 0 88.8779 95.709 65.522 -8.20712 -0.135866 14.836 3.90815 -158.94 14.318 172.327 -146.024 52.6899 -175.906 0.388503 -14.0768 -27.0994 -81.8366 46.5159 -67.326 16.5754 -3.84038 -101.901 0.420957 0.000575435 0.35866 -1.6969 5.67164 44.5354 -70.5026 -43.2364 50.0556 16.3126 -7.08954 67.061 0.58676 0.000330997 0.0646654 -64.5049 -8.71179 92.5764 -3.55395 44.0652 -11.7578 -6.57663 7.81947 1.81053 -0.414079 1.66586 -1.69452 -9.10731 6.23637 82.8403 2.30698 38.0251 6.5313 -1.8366 10.9917 -0.281035 1.30605 -25.5432 -28.1264 
183.319 92.7856 -12.5547 57.1845 -4.48966 -1.60946 -70.1915 0 88.8779 101.712 66.0286 -14.3917 -0.709846 15.356 4.87772 -159.015 15.7033 176.116 -146.842 54.3983 -174.415 0.156785 -14.9465 -29.0115 -77.4088 48.3212 -68.3165 16.7213 -1.09311 -92.9164 0.420957 0.000575435 0.35866 -1.63264 5.4829 44.4455 -72.2618 -41.0794 54.0863 17.4048 -7.42457 67.5143 0.58676 0.000330997 0.0646654 -61.2869 -8.33748 93.2882 -5.16647 56.3612 -7.55862 -6.59471 5.66111 1.52557 -1.32459 -0.114173 6.842 -12.1504 5.51161 82.9254 1.99862 45.2103 -1.05251 -2.42953 -0.192744 0.471856 2.7589 -5.11938 -18.2354 
191.942 91.3697 -12.4821 59.3923 -4.05967 -0.299962 -70.1915 0 88.8779 110.979 66.0106 -21.9356 -2.04674 16.0905 5.25253 -157.774 16.6395 176.611 -144.211 55.0777 -175.382 -0.00992001 -15.4093 -30.6549 -73.972 50.2955 -68.9278 18.0471 2.03774 -83.123 0.420957 0.000575435 0.35866 -1.73628 5.52514 45.9933 -72.6551 -37.4211 59.9438 17.545 -6.88827 69.1343 0.58676 0.000330997 0.0646654 -55.3198 -4.36695 94.4711 -9.6209 70.5573 2.21246 -5.62917 4.93052 1.26063 0.303685 -3.01795 6.37248 -16.8384 6.02201 82.4318 1.3019 52.3348 -9.91796 -15.3554 -6.89172 1.75532 1.72409 -13.6267 -1.42666 
